<?xml version="1.0" ?><svg enable-background="new 0 0 256.07 256" height="512" id="Слой_1" version="1.0" viewBox="0 0 511.99999 512" width="512" xml:space="preserve" xmlns="http://www.w3.org/2000/svg" xmlns:cc="http://creativecommons.org/ns#" xmlns:dc="http://purl.org/dc/elements/1.1/" xmlns:inkscape="http://www.inkscape.org/namespaces/inkscape" xmlns:rdf="http://www.w3.org/1999/02/22-rdf-syntax-ns#" xmlns:sodipodi="http://sodipodi.sourceforge.net/DTD/sodipodi-0.dtd" xmlns:svg="http://www.w3.org/2000/svg"><defs id="defs13"/><g id="g3" transform="matrix(2.1267039,0,0,2.1267039,-15.778021,-11.1513)"><path d="M 104.967,39.587 53.722,33.632 22.043,56.035 v 41.4 l 17.783,3.969 -1.196,-20.548 21.694,26.716 44.643,-67.985 z M 64.043,91.1 V 59.015 H 83.088 L 64.043,91.1 z m -7,-32.085 V 92.822 L 40.547,71.752 50.804,59.016 h 6.239 z" id="path5"/><polygon id="polygon7" points="59.68,112.182 22.043,103.957 22.043,134.014 97.043,162.088 97.043,156.983 68.961,140.255 "/><path d="m 212.013,150.107 c -2.95,0 -5.805,0.422 -8.554,1.094 l -13.352,-38.187 h -19.064 v 10 h 11.953 l 2.838,8 h -57.888 l -1.575,-3 h 13.672 v -10 h -28 v 10 h 3.079 l 3.464,7.331 -23.798,45.669 H 79.346 c -2.431,-17 -17.526,-31.051 -35.772,-31.051 -19.936,0 -36.155,16.292 -36.155,36.228 0,19.936 16.22,35.943 36.155,35.943 18.149,0 33.176,-13.12 35.729,-31.12 h 68.481 l 44.317,-41.71 1.874,5.548 c -10.813,6.26 -18.118,17.986 -18.118,31.349 0,19.936 16.221,36.186 36.155,36.186 19.936,0 36.155,-16.204 36.155,-36.14 0.001,-19.934 -16.219,-36.14 -36.154,-36.14 z m -26.392,-8.092 -36.268,36.046 -16.683,-36.046 h 52.951 z m -61.613,4.884 15.788,34.115 H 106.29 l 17.718,-34.115 z m -80.435,65.062 c -14.308,0 -25.947,-11.517 -25.947,-25.822 0,-14.305 11.639,-26.027 25.947,-26.027 12.609,0 23.135,8.903 25.458,20.903 H 42.043 v 10 h 26.943 c -2.432,12 -12.902,20.946 -25.413,20.946 z m 168.44,0.248 c -14.309,0 -25.946,-11.641 -25.946,-25.946 0,-8.883 4.489,-16.731 11.315,-21.41 l 6.543,18.961 9.65,-3.329 -6.779,-19.64 c 1.688,-0.346 3.43,-0.528 5.217,-0.528 14.31,0 25.947,11.641 25.947,25.946 0,14.305 -11.638,25.946 -25.947,25.946 z" id="path9"/></g></svg>